<svg xmlns="http://www.w3.org/2000/svg" viewBox="0 0 106.65 61.82"><defs><style>.cls-1{fill:#242424;}.cls-2{fill:#bd0000;}</style></defs><title>ic_launcher2</title><g id="Layer_2" data-name="Layer 2"><g id="Layer_1-2" data-name="Layer 1"><path class="cls-1" d="M53.32,41.56,21.51,31.77V48.13c0,7.56,14.25,13.69,31.82,13.69s31.83-6.13,31.83-13.69c0-.06,0-.12,0-.18V31.77Z"/><path class="cls-2" d="M0,20.52l11.37,4.06,1-2.07,4.18-.36.59.62-3.58.85L13,25.17S4.91,42.08,6.1,50.36c0,0,5.05,3,10.1,0l1.34-22.63V25.85l7.51-1.7-.53,1.31-5.6,1.82,2.59.93L53.32,38l31.82-9.79,21.51-7.69L53.32,0Z"/></g></g></svg>